<svg xmlns="http://www.w3.org/2000/svg" xmlns:xlink="http://www.w3.org/1999/xlink" viewBox="0 0 150 45"><path d="M 144.437 45.266 L 5.557 45.266 C 2.494 45.266 0 42.715 0 39.608 L 0 5.658 C 0 2.54 2.494 0 5.557 0 L 144.437 0 C 147.497 0 149.994 2.54 149.994 5.658 L 149.994 39.608 C 149.994 42.715 147.497 45.266 144.437 45.266 Z" fill="rgb(0,0,0)"></path><path d="M 144.437 0.906 C 147.006 0.906 149.109 3.042 149.109 5.658 L 149.109 39.608 C 149.109 42.224 147.02 44.361 144.437 44.361 L 5.557 44.361 C 2.988 44.361 0.886 42.224 0.886 39.608 L 0.886 5.658 C 0.886 3.042 2.975 0.906 5.557 0.906 Z M 144.437 0 L 5.557 0 C 2.494 0 0 2.551 0 5.658 L 0 39.608 C 0 42.727 2.494 45.266 5.557 45.266 L 144.437 45.266 C 147.497 45.266 149.994 42.727 149.994 39.608 L 149.994 5.658 C 149.994 2.551 147.497 0 144.437 0 Z" fill="rgb(166,166,166)"></path><path d="M 79.018 14.974 C 78.016 14.974 77.172 14.616 76.504 13.91 C 75.842 13.224 75.472 12.279 75.488 11.314 C 75.488 10.284 75.831 9.412 76.504 8.72 C 77.169 8.015 78.013 7.656 79.015 7.656 C 80.006 7.656 80.85 8.015 81.529 8.72 C 82.202 9.434 82.544 10.306 82.544 11.314 C 82.533 12.347 82.191 13.219 81.529 13.907 C 80.864 14.618 80.019 14.974 79.018 14.974 Z M 49.214 14.974 C 48.234 14.974 47.384 14.621 46.689 13.924 C 45.999 13.23 45.648 12.352 45.648 11.317 C 45.648 10.281 45.999 9.403 46.689 8.709 C 47.37 8.012 48.22 7.659 49.214 7.659 C 49.699 7.659 50.171 7.758 50.624 7.958 C 51.068 8.153 51.429 8.418 51.697 8.743 L 51.763 8.825 L 51.015 9.575 L 50.938 9.482 C 50.516 8.969 49.95 8.717 49.203 8.717 C 48.535 8.717 47.953 8.96 47.472 9.44 C 46.99 9.922 46.744 10.555 46.744 11.319 C 46.744 12.084 46.99 12.716 47.472 13.199 C 47.953 13.679 48.535 13.921 49.203 13.921 C 49.914 13.921 50.513 13.679 50.98 13.199 C 51.256 12.917 51.427 12.522 51.487 12.022 L 49.089 12.022 L 49.089 10.967 L 52.517 10.967 L 52.53 11.063 C 52.555 11.24 52.58 11.424 52.58 11.593 C 52.58 12.567 52.293 13.354 51.725 13.936 C 51.079 14.624 50.235 14.974 49.214 14.974 Z M 88.841 14.824 L 87.784 14.824 L 84.547 9.527 L 84.575 10.481 L 84.575 14.822 L 83.518 14.822 L 83.518 7.809 L 84.724 7.809 L 84.757 7.862 L 87.801 12.852 L 87.773 11.901 L 87.773 7.809 L 88.841 7.809 Z M 71.076 14.824 L 70.006 14.824 L 70.006 8.864 L 68.148 8.864 L 68.148 7.809 L 72.93 7.809 L 72.93 8.864 L 71.073 8.864 L 71.073 14.824 Z M 67.276 14.824 L 66.209 14.824 L 66.209 7.809 L 67.276 7.809 Z M 61.275 14.824 L 60.207 14.824 L 60.207 8.864 L 58.35 8.864 L 58.35 7.809 L 63.132 7.809 L 63.132 8.864 L 61.275 8.864 Z M 57.674 14.813 L 53.579 14.813 L 53.579 7.809 L 57.674 7.809 L 57.674 8.864 L 54.65 8.864 L 54.65 10.789 L 57.379 10.789 L 57.379 11.833 L 54.65 11.833 L 54.65 13.758 L 57.674 13.758 Z M 77.288 13.185 C 77.765 13.673 78.344 13.919 79.018 13.919 C 79.71 13.919 80.276 13.679 80.748 13.185 C 81.217 12.705 81.454 12.076 81.454 11.317 C 81.454 10.557 81.217 9.925 80.751 9.448 C 80.273 8.96 79.691 8.715 79.02 8.715 C 78.328 8.715 77.762 8.955 77.293 9.448 C 76.824 9.928 76.587 10.557 76.587 11.317 C 76.587 12.076 76.821 12.708 77.288 13.185 Z" fill="rgb(255,255,255)"></path><path d="M 75.389 24.62 C 72.781 24.62 70.668 26.643 70.668 29.434 C 70.668 32.2 72.795 34.249 75.389 34.249 C 77.997 34.249 80.11 32.211 80.11 29.434 C 80.11 26.643 77.997 24.62 75.389 24.62 Z M 75.389 32.341 C 73.962 32.341 72.735 31.133 72.735 29.423 C 72.735 27.688 73.965 26.505 75.389 26.505 C 76.816 26.505 78.044 27.688 78.044 29.423 C 78.046 31.145 76.816 32.341 75.389 32.341 Z M 65.088 24.62 C 62.481 24.62 60.367 26.643 60.367 29.434 C 60.367 32.2 62.494 34.249 65.088 34.249 C 67.696 34.249 69.81 32.211 69.81 29.434 C 69.81 26.643 67.693 24.62 65.088 24.62 Z M 65.088 32.341 C 63.662 32.341 62.434 31.133 62.434 29.423 C 62.434 27.688 63.664 26.505 65.088 26.505 C 66.515 26.505 67.743 27.688 67.743 29.423 C 67.743 31.145 66.515 32.341 65.088 32.341 Z M 52.831 26.09 L 52.831 28.128 L 57.613 28.128 C 57.467 29.271 57.097 30.115 56.531 30.693 C 55.831 31.41 54.749 32.189 52.842 32.189 C 49.903 32.189 47.605 29.762 47.605 26.756 C 47.605 23.751 49.903 21.324 52.842 21.324 C 54.429 21.324 55.585 21.964 56.443 22.783 L 57.856 21.338 C 56.664 20.17 55.077 19.275 52.853 19.275 C 48.822 19.275 45.439 22.633 45.439 26.745 C 45.439 30.868 48.819 34.215 52.853 34.215 C 55.03 34.215 56.664 33.487 57.955 32.115 C 59.272 30.769 59.688 28.87 59.688 27.338 C 59.688 26.861 59.652 26.432 59.578 26.068 L 52.828 26.068 C 52.831 26.065 52.831 26.09 52.831 26.09 Z M 102.966 27.676 C 102.572 26.595 101.38 24.609 98.935 24.609 C 96.512 24.609 94.498 26.559 94.498 29.423 C 94.498 32.127 96.49 34.238 99.169 34.238 C 101.322 34.238 102.575 32.892 103.091 32.101 L 101.493 31.006 C 100.963 31.811 100.226 32.338 99.18 32.338 C 98.124 32.338 97.384 31.847 96.893 30.879 L 103.187 28.212 C 103.187 28.215 102.966 27.676 102.966 27.676 Z M 96.548 29.285 C 96.498 27.425 97.961 26.48 99.007 26.48 C 99.832 26.48 100.519 26.895 100.753 27.498 Z M 91.435 33.95 L 93.502 33.95 L 93.502 19.805 L 91.435 19.805 Z M 88.041 25.69 L 87.966 25.69 C 87.5 25.122 86.614 24.609 85.483 24.609 C 83.135 24.609 80.971 26.722 80.971 29.437 C 80.971 32.141 83.124 34.229 85.483 34.229 C 86.6 34.229 87.5 33.713 87.966 33.134 L 88.041 33.134 L 88.041 33.826 C 88.041 35.663 87.081 36.653 85.533 36.653 C 84.266 36.653 83.48 35.722 83.159 34.943 L 81.363 35.711 C 81.879 36.981 83.256 38.553 85.53 38.553 C 87.953 38.553 90.006 37.094 90.006 33.535 L 90.006 24.897 L 88.052 24.897 L 88.052 25.69 Z M 85.668 32.341 C 84.241 32.341 83.049 31.122 83.049 29.437 C 83.049 27.738 84.241 26.508 85.668 26.508 C 87.081 26.508 88.176 27.752 88.176 29.437 C 88.19 31.122 87.083 32.341 85.668 32.341 Z M 112.643 19.805 L 107.701 19.805 L 107.701 33.95 L 109.768 33.95 L 109.768 28.593 L 112.646 28.593 C 114.934 28.593 117.183 26.897 117.183 24.205 C 117.183 21.513 114.942 19.805 112.643 19.805 Z M 112.704 26.618 L 109.765 26.618 L 109.765 21.764 L 112.704 21.764 C 114.252 21.764 115.127 23.071 115.127 24.191 C 115.127 25.3 114.241 26.618 112.704 26.618 Z M 125.466 24.595 C 123.965 24.595 122.417 25.275 121.777 26.756 L 123.609 27.535 C 124.004 26.756 124.727 26.491 125.491 26.491 C 126.562 26.491 127.643 27.146 127.668 28.314 L 127.668 28.464 C 127.299 28.249 126.487 27.922 125.516 27.922 C 123.538 27.922 121.531 29.028 121.531 31.102 C 121.531 33.002 123.154 34.221 124.961 34.221 C 126.349 34.221 127.114 33.58 127.591 32.838 L 127.666 32.838 L 127.666 33.933 L 129.658 33.933 L 129.658 28.514 C 129.658 25.991 127.826 24.595 125.466 24.595 Z M 125.207 32.341 C 124.531 32.341 123.584 32.003 123.584 31.133 C 123.584 30.038 124.765 29.624 125.773 29.624 C 126.683 29.624 127.114 29.824 127.655 30.1 C 127.506 31.37 126.457 32.33 125.207 32.341 Z M 136.926 24.897 L 134.553 31.032 L 134.478 31.032 L 132.02 24.897 L 129.796 24.897 L 133.485 33.473 L 131.382 38.239 L 133.535 38.239 L 139.211 24.897 Z M 118.322 33.95 L 120.389 33.95 L 120.389 19.805 L 118.322 19.805 Z" fill="rgb(255,255,255)"></path><g><defs><linearGradient id="idss2514789395_5g1673948333" x1="0.9929756801595457" x2="0.007024319840454278" y1="0" y2="1"><stop offset="0" stop-color="rgb(0,160,255)" stop-opacity="1"></stop><stop offset="1" stop-color="rgb(0,227,255)" stop-opacity="1"></stop></linearGradient></defs><path d="M 11.545 8.526 C 11.225 8.878 11.04 9.417 11.04 10.123 L 11.04 35.146 C 11.04 35.852 11.225 36.391 11.556 36.73 L 11.642 36.806 L 25.35 22.786 L 25.35 22.472 L 11.631 8.449 Z" fill="url(#idss2514789395_5g1673948333)"></path></g><g><defs><linearGradient id="idss2514789395_6g43703969" x1="1" x2="0" y1="0.4974874371859295" y2="0.5025125628140704"><stop offset="0" stop-color="rgb(255,224,0)" stop-opacity="1"></stop><stop offset="1" stop-color="rgb(255,156,0)" stop-opacity="1"></stop></linearGradient></defs><path d="M 29.912 27.473 L 25.339 22.797 L 25.339 22.47 L 29.912 17.793 L 30.011 17.855 L 35.419 20.999 C 36.967 21.891 36.967 23.364 35.419 24.267 L 30.011 27.411 Z" fill="url(#idss2514789395_6g43703969)"></path></g><g><defs><linearGradient id="idss2514789395_7g1458251021" x1="0.9929868573982962" x2="0.007013142601703985" y1="0" y2="1"><stop offset="0" stop-color="rgb(255,58,68)" stop-opacity="1"></stop><stop offset="1" stop-color="rgb(195,17,98)" stop-opacity="1"></stop></linearGradient></defs><path d="M 30.011 27.411 L 25.339 22.633 L 11.545 36.741 C 12.05 37.294 12.897 37.356 13.844 36.817 L 30.011 27.411" fill="url(#idss2514789395_7g1458251021)"></path></g><g><defs><linearGradient id="idss2514789395_8g-2043038355" x1="0.000021280112607884578" x2="0.9999787198873921" y1="0" y2="1"><stop offset="0" stop-color="rgb(50,160,113)" stop-opacity="1"></stop><stop offset="1" stop-color="rgb(0,240,118)" stop-opacity="1"></stop></linearGradient></defs><path d="M 30.011 17.855 L 13.844 8.463 C 12.897 7.91 12.047 7.987 11.545 8.54 L 25.339 22.633 Z" fill="url(#idss2514789395_8g-2043038355)"></path></g><path d="M 29.912 27.309 L 13.855 36.639 C 12.958 37.167 12.158 37.13 11.642 36.651 L 11.556 36.738 L 11.642 36.814 C 12.158 37.291 12.958 37.331 13.855 36.803 L 30.022 27.411 Z" fill="rgb(0,0,0)" opacity="0.2"></path><path d="M 35.419 24.104 L 29.898 27.309 L 29.997 27.411 L 35.406 24.267 C 36.181 23.816 36.562 23.223 36.562 22.633 C 36.515 23.175 36.12 23.689 35.419 24.104 Z" fill="rgb(0,0,0)" opacity="0.12"></path><path d="M 13.844 8.627 L 35.419 21.163 C 36.12 21.566 36.515 22.094 36.576 22.633 C 36.576 22.043 36.195 21.451 35.419 20.999 L 13.844 8.463 C 12.296 7.558 11.04 8.314 11.04 10.123 L 11.04 10.287 C 11.04 8.475 12.296 7.733 13.844 8.627 Z" fill="rgb(255,255,255)" opacity="0.25"></path></svg>