<svg width="50" height="50" viewBox="0 0 50 50" fill="none" xmlns="http://www.w3.org/2000/svg">
<rect width="50" height="50" rx="9" fill="black"/>
<path d="M1.58008 31.6859C1.58008 36.1004 9.43324 36.2398 9.43324 31.6859V23.5074C11.0132 24.7156 15.4741 24.158 15.4741 21.0911V5.98883C15.4741 2.92179 11.6173 -0.0519377 8.4574 1.76021C4.64699 3.94544 1.58012 8.17298 1.58008 11.1004V31.6859Z" fill="black"/>
<path d="M13.1607 20.804C13.1607 22.6192 10.0749 22.4831 10.0749 20.804V11.4558C10.0749 9.64056 7.12525 9.68594 7.12525 11.4558V31.4456C7.12525 32.3353 6.404 33.0566 5.51429 33.0566C4.62457 33.0566 3.90332 32.3353 3.90332 31.4456V12.0457C3.90332 4.31305 13.1607 9.05675 13.1607 16.7894V20.804Z" fill="#F9C16A"/>
<path opacity="0.5" d="M6.13379 28.6368V12.9353C6.13379 12.2546 6.81448 11.7101 7.44979 11.7101V27.1392L6.13379 28.6368Z" fill="black"/>
<circle cx="13.8476" cy="35.8476" r="13.8476" fill="black"/>
<ellipse cx="13.8476" cy="35.8482" rx="11.3383" ry="11.3384" fill="#F9C16A"/>
<path opacity="0.5" d="M20.4919 39.0074C13.6397 39.0074 10.7808 41.0949 10.7808 47.675C24.8858 49.258 28.4034 42.1281 20.4919 39.0074Z" fill="black"/>
<path d="M20.9651 39.5794C24.8125 39.7372 28.2822 39.8189 30.9114 38.0527C38.0044 33.288 28.7984 23.785 20.2536 23.785C18.6359 23.785 16.9944 23.5851 15.593 22.7769C6.40321 17.4773 0.556221 0 11.1789 0H39.4246C45.6859 0 49.8602 4.6729 49.8602 10.1869L49.9993 40.9457C49.9993 45.7243 45.3841 50 41 50H31.3836C20.4547 50 10.0362 39.5794 20.9651 39.5794Z" fill="black"/>
<path d="M21.6562 41.9015C28.9977 42.3559 32.9353 40.8355 35.0716 37.19C39.5215 29.5965 30.4018 21.503 21.6005 21.503C18.9429 21.503 16.2461 20.8994 14.3494 19.0377C8.50654 13.303 4.25198 2.33655 11.6011 2.33655H39.38C44.7049 2.33655 47.5329 6.30673 47.5329 10.5507V39.4829C47.5329 43.8181 43.3518 47.697 39.38 47.697H26.2824C19.1762 47.697 14.5501 41.9015 21.6562 41.9015Z" fill="#A9AC93"/>
<path d="M26.2234 8.99489C26.0441 10.0348 27.4819 11.352 27.8873 10.3814C28.8879 7.98545 29.9518 8.46679 31.3384 8.46679V5.90051C28.8425 5.34587 26.6269 6.65457 26.2234 8.99489Z" fill="black" stroke="black"/>
<path d="M34.6511 9.03861C34.8304 10.0724 33.3926 11.3819 32.9872 10.417C31.9867 8.03512 30.9227 8.51362 29.5361 8.51362V5.82455C31.8235 5.46085 34.2476 6.71208 34.6511 9.03861Z" fill="black" stroke="black"/>
<path d="M21.2236 42C12.627 42.5112 12.7199 47.8507 16.2527 47.8507C17.2014 47.8507 21.1386 47 22.5 47C24.0601 46.1307 23.3663 43.26 24.1047 42.0929L21.2236 42Z" fill="white"/>
<path d="M49.9268 14.568H47.6963L47.6963 26.1386C47.6963 29.8002 38.635 29.7848 38.635 26.1386V14.568C38.635 12.9881 36.4312 12.9881 36.4312 14.568V26.278C36.4311 32.4118 49.9268 32.4118 49.9268 26.278V14.568Z" fill="black"/>
<path d="M38.1527 32.7106C38.1649 23.5631 38.6166 20.0736 36.3479 16.0781C34.2564 16.171 32.2429 17.1459 29.6179 20.817C25.6752 20.3524 24.0981 20.3524 20.5728 20.817C18.2354 17.2817 16.0271 16.264 14.0288 16.0781C11.2958 20.0272 11.8971 23.3503 12.0843 32.7106C13.6497 46.2896 36.9913 45.4028 38.1527 32.7106Z" fill="black"/>
<path d="M36.1503 32.1836C36.2917 24.6748 36.1617 20.5436 35.1849 18.5874C34.2538 18.6967 32.9659 20.2324 30.5761 23.2342C26.2539 22.4392 23.8361 22.4509 19.4702 23.2342C17.3423 20.3435 16.1857 18.8838 14.866 18.5874C13.8013 20.3748 13.8681 24.5297 14.0386 32.1836C15.4636 43.2872 35.093 42.5621 36.1503 32.1836Z" fill="#F9C16A"/>
<g filter="url(#filter0_i_1757_9)">
<path d="M30.5761 23.234C31.6988 21.3167 34.3277 18.1224 35.3159 18.1224C35.81 19.0627 36.1524 22.2516 36.1523 24.5351C34.8946 23.5053 32.2391 23.2941 30.5761 23.234Z" fill="#FFBFB6"/>
</g>
<g filter="url(#filter1_i_1757_9)">
<path d="M30.5762 23.234C31.4041 20.9874 34.488 18.1224 35.3159 18.1224C35.3159 19.9563 31.4996 22.4779 30.5762 23.234Z" fill="#FC9B8E"/>
</g>
<g filter="url(#filter2_i_1757_9)">
<path d="M19.4702 23.234C18.3362 21.2907 15.7752 18.1224 14.7769 18.1224C13.9148 19.1447 13.9405 22.2207 13.9405 24.5351C15.2111 23.4913 17.7903 23.2949 19.4702 23.234Z" fill="#FFBFB6"/>
</g>
<g filter="url(#filter3_i_1757_9)">
<path d="M19.4692 23.234C18.6329 20.957 15.6123 18.1224 14.7759 18.1224C14.7759 19.9812 18.5364 22.4676 19.4692 23.234Z" fill="#FC9B8E"/>
</g>
<path d="M27.8133 28.3251C27.6959 29.0058 28.6371 29.868 28.9024 29.2327C29.5573 27.6644 30.2537 27.9795 31.1613 27.9795V26.2997C29.5276 25.9367 28.0774 26.7933 27.8133 28.3251Z" fill="black" stroke="black"/>
<path d="M33.3293 28.3527C33.4466 29.0294 32.5055 29.8865 32.2402 29.2549C31.5853 27.6959 30.8889 28.0091 29.9813 28.0091V26.249C31.4785 26.0109 33.0652 26.8299 33.3293 28.3527Z" fill="black" stroke="black"/>
<path d="M16.8319 28.3251C16.7145 29.0058 17.6556 29.868 17.9209 29.2327C18.5759 27.6644 19.2723 27.9795 20.1798 27.9795V26.2997C18.5462 25.9367 17.096 26.7933 16.8319 28.3251Z" fill="black" stroke="black"/>
<path d="M22.3478 28.3527C22.4652 29.0294 21.5241 29.8865 21.2587 29.2549C20.6038 27.6959 19.9074 28.0091 18.9998 28.0091V26.249C20.497 26.0109 22.0837 26.8299 22.3478 28.3527Z" fill="black" stroke="black"/>
<path d="M29.4366 34.2226C29.4366 38.5337 20.5423 38.4429 20.633 34.2226C20.633 29.8662 29.4366 29.8208 29.4366 34.2226Z" fill="white"/>
<path d="M25.4746 34.2852C25.5659 33.7558 24.8339 33.0852 24.6275 33.5794C24.1181 34.7991 23.5765 34.5541 22.8706 34.5541V35.8605C24.1412 36.1429 25.2692 35.4767 25.4746 34.2852Z" fill="black" stroke="black"/>
<path d="M21.1846 34.2627C21.0933 33.7365 21.8253 33.0698 22.0317 33.561C22.541 34.7736 23.0827 34.53 23.7886 34.53V35.899C22.6241 36.0841 21.39 35.4472 21.1846 34.2627Z" fill="black" stroke="black"/>
<path d="M29.0141 34.2852C29.1054 33.7558 28.3734 33.0852 28.1671 33.5794C27.6577 34.7991 27.116 34.5541 26.4101 34.5541V35.8605C27.6808 36.1429 28.8087 35.4767 29.0141 34.2852Z" fill="black" stroke="black"/>
<path d="M24.7237 34.2627C24.6324 33.7365 25.3644 33.0698 25.5707 33.561C26.0801 34.7736 26.6218 34.53 27.3277 34.53V35.899C26.1632 36.0841 24.9291 35.4472 24.7237 34.2627Z" fill="black" stroke="black"/>
<path d="M24.2093 33.1827C24.6243 33.8009 25.5337 33.8009 25.9488 33.1827V33.1827C26.416 32.4868 25.9172 31.5513 25.079 31.5513V31.5513C24.2408 31.5513 23.7421 32.4868 24.2093 33.1827V33.1827Z" fill="black"/>
<path d="M10.7614 11.7344C13.8412 10.7673 15.8605 8.30184 16.5056 5.27831C17.0286 2.82741 14.6158 0.918012 12.1668 1.44961C8.79681 2.1811 6.95977 3.81347 6.58018 7.92532C6.35719 10.3408 8.44703 12.4611 10.7614 11.7344Z" fill="black"/>
<path d="M11.939 8.00013C12.4637 7.60743 12.8956 7.11773 13.2257 6.55865C14.5 4.40051 11.7596 1.93728 9.62371 3.24854C9.02954 3.61331 8.59107 4.12327 8.30506 4.84623C7.41268 7.10188 9.99707 9.45375 11.939 8.00013Z" fill="#432F30"/>
<path d="M48.1086 27.8809C49.833 35.2778 35.9469 34.234 37.2629 27.8809C41.4993 30.5963 43.8714 30.6106 48.1086 27.8809Z" fill="black" fill-opacity="0.5"/>
<defs>
<filter id="filter0_i_1757_9" x="30.5762" y="18.1224" width="5.57617" height="10.4126" filterUnits="userSpaceOnUse" color-interpolation-filters="sRGB">
<feFlood flood-opacity="0" result="BackgroundImageFix"/>
<feBlend mode="normal" in="SourceGraphic" in2="BackgroundImageFix" result="shape"/>
<feColorMatrix in="SourceAlpha" type="matrix" values="0 0 0 0 0 0 0 0 0 0 0 0 0 0 0 0 0 0 127 0" result="hardAlpha"/>
<feOffset dy="4"/>
<feGaussianBlur stdDeviation="2"/>
<feComposite in2="hardAlpha" operator="arithmetic" k2="-1" k3="1"/>
<feColorMatrix type="matrix" values="0 0 0 0 0 0 0 0 0 0 0 0 0 0 0 0 0 0 0.25 0"/>
<feBlend mode="normal" in2="shape" result="effect1_innerShadow_1757_9"/>
</filter>
<filter id="filter1_i_1757_9" x="30.5762" y="18.1224" width="4.73975" height="9.11157" filterUnits="userSpaceOnUse" color-interpolation-filters="sRGB">
<feFlood flood-opacity="0" result="BackgroundImageFix"/>
<feBlend mode="normal" in="SourceGraphic" in2="BackgroundImageFix" result="shape"/>
<feColorMatrix in="SourceAlpha" type="matrix" values="0 0 0 0 0 0 0 0 0 0 0 0 0 0 0 0 0 0 127 0" result="hardAlpha"/>
<feOffset dy="4"/>
<feGaussianBlur stdDeviation="2"/>
<feComposite in2="hardAlpha" operator="arithmetic" k2="-1" k3="1"/>
<feColorMatrix type="matrix" values="0 0 0 0 0 0 0 0 0 0 0 0 0 0 0 0 0 0 0.25 0"/>
<feBlend mode="normal" in2="shape" result="effect1_innerShadow_1757_9"/>
</filter>
<filter id="filter2_i_1757_9" x="13.9404" y="18.1224" width="5.52979" height="10.4126" filterUnits="userSpaceOnUse" color-interpolation-filters="sRGB">
<feFlood flood-opacity="0" result="BackgroundImageFix"/>
<feBlend mode="normal" in="SourceGraphic" in2="BackgroundImageFix" result="shape"/>
<feColorMatrix in="SourceAlpha" type="matrix" values="0 0 0 0 0 0 0 0 0 0 0 0 0 0 0 0 0 0 127 0" result="hardAlpha"/>
<feOffset dy="4"/>
<feGaussianBlur stdDeviation="2"/>
<feComposite in2="hardAlpha" operator="arithmetic" k2="-1" k3="1"/>
<feColorMatrix type="matrix" values="0 0 0 0 0 0 0 0 0 0 0 0 0 0 0 0 0 0 0.25 0"/>
<feBlend mode="normal" in2="shape" result="effect1_innerShadow_1757_9"/>
</filter>
<filter id="filter3_i_1757_9" x="14.7759" y="18.1224" width="4.69336" height="9.11157" filterUnits="userSpaceOnUse" color-interpolation-filters="sRGB">
<feFlood flood-opacity="0" result="BackgroundImageFix"/>
<feBlend mode="normal" in="SourceGraphic" in2="BackgroundImageFix" result="shape"/>
<feColorMatrix in="SourceAlpha" type="matrix" values="0 0 0 0 0 0 0 0 0 0 0 0 0 0 0 0 0 0 127 0" result="hardAlpha"/>
<feOffset dy="4"/>
<feGaussianBlur stdDeviation="2"/>
<feComposite in2="hardAlpha" operator="arithmetic" k2="-1" k3="1"/>
<feColorMatrix type="matrix" values="0 0 0 0 0 0 0 0 0 0 0 0 0 0 0 0 0 0 0.25 0"/>
<feBlend mode="normal" in2="shape" result="effect1_innerShadow_1757_9"/>
</filter>
</defs>
</svg>
